<svg width="41" height="72" viewBox="0 0 41 72" fill="none" xmlns="http://www.w3.org/2000/svg">
<path d="M0 1.67107V22.6788C0 33.8988 8.83278 43.5671 20.0528 43.8058C31.5116 44.0446 40.9412 34.7343 40.9412 23.3949V1.67107C40.9412 0.716172 40.225 0 39.2701 0H1.67107C0.716172 0 0 0.716172 0 1.67107Z" fill="#E5ECF3"/>
<path d="M20.4108 65.0522C11.9361 65.0522 5.01306 67.6781 5.01306 71.0203H35.9278C35.9278 67.6781 29.0048 65.0522 20.4108 65.0522Z" fill="#EDF2F7"/>
<path d="M22.6788 33.7796H18.2625V67.0816H22.6788V33.7796Z" fill="#EDF2F7"/>
<path d="M3.46143 28.4081C5.7293 35.6892 12.4136 41.1798 20.1721 41.2992H20.5302C25.3047 41.2992 29.8404 39.3894 33.1826 36.0472C35.3311 33.8987 36.8828 31.2728 37.7183 28.4081H3.46143V28.4081Z" fill="#1A3853"/>
<path opacity="0.05" d="M39.1507 0H28.8856C29.8405 0 30.5567 0.716172 30.5567 1.67107V23.3949C30.5567 32.9439 24.1111 40.8218 15.2783 43.209C16.83 43.5671 18.3817 43.9252 20.0528 43.9252C31.5115 44.1639 40.9411 34.8537 40.9411 23.5143V1.67107C40.9411 0.716172 40.1056 0 39.1507 0Z" fill="#1A3853"/>
<path opacity="0.5" d="M3.58096 22.6788V1.67107C3.58096 0.716172 4.29714 0 5.25203 0H2.86479C1.9099 0 1.19373 0.716172 1.19373 1.67107V22.6788C1.19373 33.8988 10.0265 43.5671 21.2465 43.8058C21.8433 43.8058 22.3208 43.8058 22.9176 43.8058C12.0557 43.209 3.58096 33.6601 3.58096 22.6788Z" fill="white"/>
</svg>
